<?xml version="1.0" encoding="UTF-8" standalone="no"?><!DOCTYPE svg PUBLIC "-//W3C//DTD SVG 1.1//EN" "http://www.w3.org/Graphics/SVG/1.1/DTD/svg11.dtd"><svg width="100%" height="100%" viewBox="0 0 56 38" version="1.1" xmlns="http://www.w3.org/2000/svg" xmlns:xlink="http://www.w3.org/1999/xlink" xml:space="preserve" xmlns:serif="http://www.serif.com/" style="fill-rule:evenodd;clip-rule:evenodd;stroke-linejoin:round;stroke-miterlimit:1.41421;">    <g id="ion-ios-email-outline" transform="matrix(1.32383,0,0,1.32383,-431.37,-169.253)">        <path d="M368.001,156.152L326,156.152C325.918,156.139 325.864,156.093 325.85,156.002L325.85,128.001C325.863,127.919 325.909,127.865 326,127.851L368.001,127.851C368.017,127.853 368.032,127.856 368.048,127.858C368.104,127.887 368.141,127.934 368.151,128.001L368.151,156.002C368.139,156.084 368.093,156.137 368.001,156.152ZM353.891,140.492C353.891,140.492 361.247,148.832 361.247,148.832C361.355,149.223 360.958,149.332 360.792,149.224L352.243,141.65L347.047,145.645C346.962,145.659 346.936,145.637 346.907,145.622L341.755,141.65C341.755,141.65 333.169,149.249 333.169,149.249C332.773,149.359 332.669,148.96 332.776,148.794L340.107,140.492L327.897,131.149L327.897,154.102L366.101,154.102L366.101,131.149C362.031,134.263 357.961,137.377 353.891,140.492ZM364.385,129.901L329.618,129.901L347.001,143.126L364.385,129.901Z" style="fill:rgb(0,0,0);fill-rule:nonzero;"/>    </g></svg>