<?xml version="1.0" encoding="UTF-8" standalone="no"?><!DOCTYPE svg PUBLIC "-//W3C//DTD SVG 1.1//EN" "http://www.w3.org/Graphics/SVG/1.1/DTD/svg11.dtd"><svg width="100%" height="100%" viewBox="0 0 56 57" version="1.1" xmlns="http://www.w3.org/2000/svg" xmlns:xlink="http://www.w3.org/1999/xlink" xml:space="preserve" xmlns:serif="http://www.serif.com/" style="fill-rule:evenodd;clip-rule:evenodd;stroke-linejoin:round;stroke-miterlimit:1.41421;">    <g id="ion-ios-telephone-outline" transform="matrix(1.95823,0,0,1.95823,-765.056,-249.972)">        <path d="M396.283,127.653C397.403,127.702 398.402,128.329 399.138,129.195C399.138,129.195 401.492,132.183 402.064,133.663C402.694,135.289 402.013,136.816 401.019,138.727C400.979,138.804 400.941,138.883 400.908,138.963C400.564,139.805 401.775,140.49 402.642,141.477C403.966,142.983 405.26,144.221 406.679,145.489C406.679,145.489 407.244,146.232 407.725,146.038C409.219,145.435 410.391,144.297 411.942,144.602C412.398,144.692 412.841,144.84 413.271,145.015C413.436,145.082 413.6,145.154 413.762,145.229C414.009,145.344 414.252,145.468 414.492,145.598C414.813,145.772 415.127,145.958 415.435,146.153C415.769,146.364 416.096,146.585 416.415,146.817C416.643,146.982 416.867,147.152 417.086,147.329C417.254,147.463 417.419,147.601 417.58,147.743C418.846,148.861 419.805,150.63 418.974,152.376C417.72,155.01 414.952,156.753 411.74,156.283C407.911,155.722 404.604,153.039 401.741,150.572C397.639,147.037 394.079,142.749 391.816,137.894C390.645,135.384 389.989,132.262 391.871,130.033C393.02,128.672 394.523,127.627 396.283,127.653ZM396.112,129.702C395.307,129.747 394.421,130.409 394.421,130.409C393.481,130.543 392.223,132.944 392.86,135.161C395.068,142.852 401.954,148.991 407.914,152.579C410.016,153.844 412.589,155.169 414.811,154.028C416.188,153.321 417.512,151.989 417.394,150.766C417.331,150.113 416.749,149.663 416.22,149.188C414.738,147.856 412.86,146.364 411.037,146.574C410.507,146.634 410.686,146.766 409.07,147.662C408.332,148.071 407.416,148.352 406.601,147.906C406.147,147.657 405.579,147.119 405.579,147.119C405.396,147.069 405.557,147.167 404.897,146.6C404.15,145.947 403.191,144.927 403.191,144.927C403.191,144.927 401.656,143.368 400.367,141.914C400.067,141.522 399.957,141.386 399.755,141.156C399.288,140.614 398.864,139.989 398.84,139.275C398.795,137.943 400.175,136.94 400.467,135.909C400.902,134.365 399.655,133.038 398.824,131.959C398.034,130.932 397.737,130.589 397.419,130.283C397.062,129.94 396.728,129.691 396.112,129.702Z" style="fill:rgb(0,0,0);fill-rule:nonzero;"/>    </g></svg>